<?xml version="1.0" encoding="UTF-8"?>
<svg id="Layer_1" data-name="Layer 1" xmlns="http://www.w3.org/2000/svg" width="790.86943" height="149.93539" viewBox="0 0 790.86943 149.93539">
  <defs>
    <style>
      .cls-1 {
        fill: #fff;
      }
    </style>
  </defs>
  <path d="m323.13853,121.06949v-5.92404c1.63609.21483.9762-3.76483,1.05724-4.71158.16661-1.94664.7979-3.85057.93297-5.78535.14926-2.13793-.61543-4.13442-.87051-6.23143-.2366-1.94513-.18285-3.91264-.16912-5.86826.02893-4.12078,1.10598-8.18499,1.05809-12.26241-.02844-2.42095-.95695-4.68712-.96843-7.10692-.01007-2.12171.51767-4.23768,1.01787-6.28647,2.09043-8.56222,8.33923-13.45112,16.98543-14.5521,4.89959-.6239,10.10921-.28145,15.04025-.19164,3.85986.07031,7.80325-1.08691,11.56745-.2702,4.78848,1.03894,9.63168,2.09271,14.37209,3.33297,3.98858,1.04355,6.94903,3.43385,10.28152,5.74844,1.91084,1.32719,3.27859,3.07823,5.45726,1.48284,1.44275-1.0565,2.50117-2.62512,3.80211-3.84826,3.20882-3.01691,5.98616-4.22888,10.20399-5.19357,8.86862-2.02839,17.67819-3.64188,26.62516-1.17833,4.52841,1.2469,8.86246,3.12457,13.23721,4.80254,1.57055.6024,3.17927,1.14772,4.64378,1.98621,1.89961,1.08759,2.0637,1.71817,3.47503-.03149,2.72406-3.37704,5.33892-5.47629,9.64555-6.42068,4.43824-.97325,9.00337-1.49614,13.55446-1.38539,3.87413.09428,9.01548.97556,12.40314,2.9931,1.11771.66567,2.7549,3.07112,3.89929,3.30304,1.06709.21626,2.73447-1.69117,3.62258-2.26701,6.75-4.3766,16.96244-3.57031,24.58337-2.71609,4.50531.50499,8.86157,1.24495,12.4526,4.17642,1.34839,1.10073,1.6449,2.17917,3.11493,1.1517,1.17581-.82183,1.86381-2.42898,3.17963-3.28597,6.84988-4.46128,18.06493-3.32713,25.69939-2.12605,2.53553.3989,5.34343.77787,7.74841,1.69984,1.57391.60337,2.6087,1.95443,4.25036,1.67285,1.6542-.28373,3.48618-1.71957,5.17597-2.23706,2.27169-.69568,4.65469-1.13152,7.01337-1.40604,8.6162-1.00284,17.74235-1.22158,26.29821.4017,4.29054.81403,8.69536,2.24752,12.39432,4.58149,1.85451,1.17018,6.16572,6.22915,8.20561,5.6368,1.37115-.39815,3.22666-3.39103,4.35263-4.41405,1.42774-1.2972,3.0571-2.75624,4.83293-3.56894,3.34257-1.52972,7.57401-1.91664,11.16779-2.56646,2.85498-.51623,5.88387-1.38543,8.79013-1.45819,1.80052-.04508,3.60809.3132,5.41147.38395,4.34415.17043,8.20284,1.66188,12.25188,3.10764,2.32545.83034,4.65921,1.6413,6.94839,2.5674,1.31329.5313,4.26185,2.54379,5.6107,2.57981,1.5254.04073,1.80877-1.21505,2.93658-2.38721,1.23644-1.28505,2.71992-2.44767,4.3554-3.18752,7.39268-3.34425,17.11892-2.47407,24.7803-.67006,1.98302.46694,3.78485.99448,5.48884,2.11723.88949.5861,2.99101,3.32625,3.83237,3.45869.98537.15511,4.3296-4.58994,6.11377-5.52801,1.6828-.88477,3.61704-1.32201,5.4845-1.6391,2.34201-.39767,4.41668.3308,6.75922.33826,4.03568.01286,7.6694-1.05749,11.718-.19299,4.34371.92752,7.97915,1.89804,11.12019,5.19368,2.83741,2.97705,3.54101,6.79809,4.19366,10.73531.74912,4.51932-.47167,8.76505.02872,13.2424.48143,4.30817.30867,8.51453.15644,12.84189-.14011,3.98328.23806,8.09962-.4533,12.01508-.78121,4.42428-.03012,8.60146.54816,13.01672.95642,7.30247-.03592,16.99896-6.57401,21.64115-3.57772,2.54025-9.56642,3.09327-13.83946,3.37707-4.18075.27768-8.1615.21191-12.27949-.64924-4.44998-.93057-7.05249-2.22685-10.23291-5.25907-1.43783-1.37081-.94928-1.00609-2.32195.44553-1.36838,1.44707-2.84152,2.63212-4.66431,3.47773-3.37158,1.56408-7.18205,1.90256-10.85469,1.8281-4.50889-.09142-9.23932.07717-13.6928-.68928-3.79607-.65331-7.24951-1.68446-9.82463-4.6968-.5163-.604-1.73041-3.25448-2.44399-3.26744-.55041-.00999-3.24243,2.74024-3.80791,3.09664-3.86671,2.43689-8.98875,3.60539-13.35733,4.8153-3.51743.97416-7.18602,2.14005-10.86049,2.14951-4.71533.01213-9.20705-1.16514-13.61953-2.70384-3.75202-1.3084-8.35992-1.96571-11.69532-4.05637-1.84183-1.15446-3.49682-2.57373-5.01995-4.11187-1.52479-1.5398-1.39459-1.71943-3.0083-.15987-2.73079,2.63916-5.57091,5.18722-9.17078,6.61415-4.12355,1.63449-8.93018,1.93358-13.27515,2.7129-4.65982.8358-9.23273,1.7466-13.99205,1.38955-8.75972-.65716-17.21445-3.88829-24.74838-8.16238-4.00332-2.27115-8.10982-4.40253-10.58205-8.45635-.21795-.35742-1.11373-3.34765-1.8188-3.09377-.83378.30022.33103,2.76125.36689,3.36923.22836,3.87423-1.90455,8.11397-4.62619,10.76067-2.853,2.77444-6.2366,3.55699-10.04249,4.35834-2.30114.48451-4.35357.87701-6.71534.57967-2.00114-.25194-3.80782-.52565-5.83053-.31633-2.56344.26528-4.40479.46961-6.9626-.09076-1.8928-.41468-3.74299-.92956-5.61204-1.43165-4.66492-1.25315-8.43973.08904-13.11243.35304-3.9541.22341-7.92057-.49694-11.84158.24777-4.36682.82939-9.09841.56901-13.54114.25738-2.10094-.14737-3.79247-.31014-5.86248.07538-1.86109.34661-3.62964.44429-5.51954.3429-7.43839-.39904-17.18974-1.48241-21.33265-8.52951-4.90597,4.92802-12.09877,6.59345-18.65967,8.31938-6.96242,1.83155-13.08431,2.13436-20.04866-.01142-5.27402-1.62497-11.77203-2.86754-16.22715-6.14654-2.32905-1.71419-4.00175-3.94412-6.08211-5.91192-1.98156-1.87435-4.40494-3.179-6.40176-4.99977-1.4242-1.29863-2.3332-4.06466-4.2353-4.02493-1.01704.02124-2.98626,1.25018-4.00675,1.56435-1.25458.38623-2.53124.6891-3.81112.98019-.97134.22092-3.60636.14995-4.36131.63474-.7494.48123-.59206,1.68829-.74573,2.60078-.41843,2.48466-1.13214,4.93835-2.39897,7.13494-3.18827,5.52824-8.0353,7.37917-13.96317,8.89788-3.42109.87648-6.2589.20475-9.74192.08623-3.04165-.1035-6.04595-.1644-9.02351-.87014-4.707-1.11565-9.60844-3.75634-11.99625-8.1048-1.23483-2.24876-1.80774-5.16316-2.15222-7.67643-.14716-1.07366.7678-7.05918-1.24736-6.35911Zm180.89695-25.1062c.04787.00605.09572.01209.14359.01813,0,2.36205.28087,2.41736,2.4632,2.09095.73333-.10968,6.59367-.25475,6.69101-.3653.78043-.88621-6.40002-8.80662-8.12917-9.56713-.89759,2.24075-.80318,5.41152-1.16863,7.82335Z"/>
  <g>
    <path d="m348.3562,36.39172V.02209h21.93505v14.8871h51.47239V.01959h21.95621v36.37214h-21.93364v-14.90064h-51.49637v14.90064h-21.93364Z"/>
    <path d="m460.88531,36.39172V.02065c.08767-.00712.17238-.02001.25709-.02002,25.61302-.00082,51.22604-.00075,76.83907-.0003.04947,0,.09892.00606.14839.00929v6.53012c-4.00069.10204-8.01595.00961-12.01815.00967-14.42186.0002-28.84375.00016-43.26563.00016v8.38366h52.41129v6.55549h-52.41171v9.29581c4.00342,0,8.00686-.00019,12.0103-.00033,14.42463-.00053,28.84928.00428,43.27391.01027,0,1.77829.00384,3.55662-.01138,5.33478-.00076.08819-.1674.25162-.25683.25165-25.65878.01107-51.31757.01081-76.97635.01081Z"/>
    <path d="m282.55527,36.39172V7.48722h-32.42468c0-2.43171-.00371-4.83682.01571-7.24176.00067-.08271.23297-.23522.35735-.23526C279.88449-.00012,309.26534.00027,338.64619.0009c.04801,0,.09602.00809.16321.01413v7.46243h-33.36685v28.91426h-22.88728Z"/>
  </g>
  <g>
    <path d="m45.827,50.45073v5.66586h5.687v5.68884h5.70252v28.39017h-5.66434v5.64946h-5.71837v5.69034H11.48442v28.33347H.03649c-.01211-.16922-.03502-.33997-.03504-.51073C-.00025,103.19293-.00035,77.02772.00061,50.8625c0-.13726.01571-.27451.02409-.41177h45.80231Zm-5.75268,11.42161H11.50265v28.2769h28.57765v-5.64828h5.67565v-17.01296h-5.68163v-5.61566Z"/>
    <path d="m320.5216,129.89754h-34.20811v-11.31468h11.35466v-56.72872h-5.65371v-11.40341c5.72529,0,11.45058,0,17.17587,0-.0048.0786-.01386.1572-.01386.2358-.00076,22.46167-.00096,44.92333.00087,67.385,0,.15018.02828.30037.04598.47646h11.29831v11.34954Z"/>
    <path d="m206.15068,90.19257h5.66929v-5.65301h5.72096v-5.66389h34.34686v5.6177h5.73956v5.66802h5.69058v11.36688h-5.65697v5.69044h-40.04969v5.64523h5.66109v5.68834h34.32858v5.69166h-5.66521v5.63127h-34.36959v-5.60385h-5.71827v-5.68826h-5.69719v-28.39053Zm45.72546.04857h-28.54258v5.59111h28.54258v-5.59111Z"/>
    <path d="m143.11621,112.89774h5.72046v-5.67226h5.71211v-5.66444h-5.66942v-5.66752h-5.73903v-5.6675h-5.68467v-11.34729h11.39222v5.62981h5.71862v5.6682h5.73973v5.64672h5.72013v-5.63309h5.71887v-5.65231h5.72166v-5.66348h11.43083v11.32122h-5.66419v5.64968h-5.71862v5.6912h-5.70237v5.66704h5.6722v5.66815h5.69765v5.66816h5.71976v11.33123h-11.40696v-5.59393h-5.71842v-5.6884h-5.71797v-5.6385h-5.7378v5.60536h-5.69993v5.66815h-5.74372v5.65302h-11.41824v-11.2912h5.65707v-5.68801Z"/>
    <path d="m80.18432,129.88472v-11.30712h11.37682v-28.36319h-5.64942v-11.33133h17.14309v39.66094h11.40989v11.3407h-34.28038Z"/>
    <path d="m91.64624,61.84859h11.37359v11.29436h-11.37359v-11.29436Z"/>
  </g>
  <g>
    <path class="cls-1" d="m385.77791,107.07894l-.09131.27734h-.0918l-8.59131,3.78711-7.31201,1.2002h-.18311l-10.51074-.64648.54834,12.83887v.18457l-.91406,4.24805v.09277l-3.74756,1.29297-4.66113-.64648h-2.55908l-6.67236-.64648v-.09277l-.64014-9.32812.27441-5.26465s.09131,0,.18262-.09277l.73145-1.38477.63965-11.17578-1.82812-6.83496v-.09277l1.82812-13.57715-1.18799-9.14355v-.18457l1.82812-3.69434s0-.09229.09131-.09229l1.73633-.5542h4.02197c.09131-.09229.09131,0,.18262,0l16.08643.5542,3.56445-1.1084.09131-.09229h.18311l11.60791,2.77051,6.94629,4.61816h.09131l.09131.09277,3.93018,5.17188v.09277l1.27979,16.53223-6.94629,10.89844Zm-41.22168-15.5166l-4.02148,3.41797,1.73633,6.28027,2.28516-9.69824Zm.09131-.46191l-2.28467-9.14355-1.73682,12.56152,4.02148-3.41797Zm3.29053,19.67285l-7.0376,3.69531-.27441,4.89453,7.31201-8.58984Zm-5.02686,17.17969l.82227-2.58594,2.65088-7.94336-1.37109.55469-4.38721,1.84668,2.28516,8.12793Zm-.18311.36914l-1.82764-6.46484-.27441-1.1084.54834,8.03516,1.55371-.46191Zm-1.82764-8.95898l3.29004-1.29297,2.28516-.92383,1.73682-6.28027-3.65625,4.24902-3.65576,4.24805Zm5.94092-8.21973l-5.11865,1.84668-.63965,1.1084,5.7583-2.95508Zm-5.66699-39.16113l1.64551,3.41699,1.64502-7.38867-3.29053,3.97168Zm1.09668,8.4043l.54883-4.70996-1.5542-3.14062,1.00537,7.85059Zm2.10254-12.56104l-1.37109.46191-1.4624,2.95557,2.8335-3.41748Zm-1.4624,60.68115l-1.27979.37012,4.47852.46191-3.19873-.83203Zm5.30127-18.19434l-5.84961-8.2207-.54834,10.62207,6.39795-2.40137Zm-2.65088-24.29199l-.45703-1.84668-2.10205-7.85059-.54834,4.89453,1.64502,2.58691,1.4624,2.21582Zm2.65088,23.83008l-.82275-7.38965-.27441-3.04785-4.66113,2.30957,5.7583,8.12793Zm-3.47314-19.11914l.27393-1.1084.82275-2.77051-3.29053-4.98828,2.19385,8.86719Zm-2.19385,10.34473l6.85498-9.79102h-4.56982l-2.28516,9.79102Zm6.12402-6.92773l.73096-2.40137-6.76367,9.69824,4.47852-2.30859,1.5542-4.98828Zm-3.83887-26.23047l-1.73682,7.38867,4.84424-4.61719-3.10742-2.77148Zm1.18799,18.65723l.45703-.27734,5.39258-4.9873-3.74756-2.30859-5.02686-3.04883,1.09668,3.97168,1.82812,6.65039Zm1.09668,39.25391l-.63965-7.94336-3.38184,10.16016,4.02148-2.2168Zm-3.93018-50.15234l8.86572,5.35645v-9.5127l-4.47852,2.12402-4.38721,2.03223Zm4.479,53.75391l-.54883-3.3252-2.55908,1.38574-1.37109.83105,1.37109.37012,3.10791.73828Zm.54834-58.64941l-4.66162,4.52539,8.22607-3.87891-3.56445-.64648Zm-3.29053,20.31934h4.47852l-2.28516-2.67773-1.09668-1.38574-.36572,1.47754-.73096,2.58594Zm3.10742-20.68848l.54834-2.67871h-3.56445l3.01611,2.67871Zm1.55371,20.50391l2.28516-9.14355.09131-.18457-5.48389,4.89453-.36572.37012,1.18848,1.38477,2.28467,2.67871Zm-2.83301,26.41504l.54834,8.12793,5.7583-10.5293-6.30664,2.40137Zm1.82764-6.74219l-1.73633,6.46582,6.30664-2.40137-4.20459-3.69434-.36572-.37012Zm1.00537-18.8418l-2.28467,7.38965,4.02148,7.01953-1.73682-14.40918Zm-1.09668,18.28809l2.9248-3.41797-4.02148-6.83398.45703,3.97168.63965,6.28027Zm1.64551,19.21094l.54834-5.08008-3.29053,1.75488,2.74219,3.3252Zm-2.74219-2.95508l.54834,3.23242h2.10205l-2.65039-3.23242Zm.09131-.64648l3.29053-1.75488,2.19336-8.12793-5.48389,9.88281Zm1.27979-57.81885l-.54834,2.771,3.56445.55371-1.37109-1.56934-1.64502-1.75537Zm9.77979,40.27002l-9.87109,2.30859,4.56982,4.15625,1.37109-1.57031,3.93018-4.89453Zm-9.77979,2.12402l9.59668-2.30859-6.85498-1.1084-.63965.83105-2.10205,2.58594Zm3.38184-38.97656l12.06445-2.95557-15.17236-.5542,3.10791,3.50977Zm-.64014,34.72754l2.28516-10.99023-3.10742-2.77148-.91406-.73828,1.73633,14.5Zm-1.64502-15.05469l1.64502-.73828,1.73682-.92383-.18262-1.20117-1.00586-6.0957-1.2793,5.35742-.91406,3.60156Zm3.38184-1.38574l-3.38184,1.66309,3.93018,3.3252-.54834-4.98828Zm3.38184,35.74414l-5.66699-1.1084-.18262,1.75488-.36572,3.50977,1.4624-.92383,4.75293-3.23242Zm.09131.37012l-6.12354,3.87891,4.2041.55371.73145-1.66211,1.18799-2.77051Zm-5.66699-1.75488l2.9248.64648,2.9248.55371.45703-3.69434,1.27979-9.23633-7.58643,11.73047Zm2.37646-9.05176l-2.28467,8.58984,7.40332-11.45312-5.11865,2.86328Zm2.8335-15.33203l-2.28516-4.34082-2.28467,10.89844,4.56982-6.55762Zm.09131.36914l-3.10742,4.43359-1.55371,2.2168,3.47314.64648,3.47314.55371-1.09668-3.9707-1.18848-3.87988Zm-4.11279-18.93359l3.29053-3.60254,3.65576-4.06348-3.38184-.92383-3.56445-.92383v9.51367Zm5.5752,1.66211l1.4624-9.05176-6.94629,7.66602,5.48389,1.38574Zm-5.48389-.92383l.91406,6.00391.18262,1.47754,3.47314-1.2002,1.4624-.55469-.18262-.18457-5.84961-5.54199Zm5.48389,1.20117l-5.30127-1.38574,5.94141,5.63379-.64014-4.24805Zm1.5542-9.79004l3.38135-2.95605,1.82812-1.6626-11.97314,2.86377,6.76367,1.75488Zm-1.09717,14.59277l-4.84424,1.75488.18311,1.2002.45703,3.87988,3.56445-5.81934.63965-1.01562Zm-4.47852,26.69238l1.37109-.73926,3.56445-2.03125v-3.41797l-4.93555,6.18848Zm.36572-19.48828l4.02148,3.14062.27441-10.16016-1.91943,3.04785-2.37646,3.97168Zm3.83887,3.41699l-3.65625-2.95508,2.10254,3.97168,1.55371-1.0166Zm.36523,30.57227l-1.00537-2.58594-.36523-.73926-1.91943,4.52539,3.29004-1.2002Zm-.18262-30.38672l-1.64502,1.10742,2.10205,7.01953-.36572-6.74219-.09131-1.38477Zm.63965,14.4082l-1.64502,12.19141,2.19385-.55371-.54883-11.6377Zm-1.64502,12.46875l1.37109,3.23242.82275-3.78711-2.19385.55469Zm.91406-42.48633l.54834,4.52539v.18457l-.27441,10.62207,9.87158.64648,6.48926-2.2168,1.82812-7.57324-2.8335-5.26465-3.29053-1.0166-3.65576-1.1084-8.68311,1.20117Zm2.8335-3.87891l-1.4624-5.26465-1.27979,8.58887,1.00537-1.1084,1.73682-2.21582Zm.18262.18457l-2.28516,2.67773-.63965.83203,8.22607-1.20117-5.30127-2.30859Zm-2.10205,28.53906l8.04297-2.12402-8.68311-7.01953.27441,4.52539.36572,4.61816Zm-.36572-9.32812l8.77441,7.01953.63965-6.37305-9.41406-.64648Zm.36572,9.60547v3.41699l7.76904-5.44922-7.76904,2.03223Zm8.31738-2.12402l-8.13477,5.63379,10.23682.64648-2.10205-6.28027Zm-7.67773-32.69629l7.12939,8.12793,1.73633-14.03906-8.86572,5.91113Zm.09131.55469l1.37109,5.26465,5.30127,2.30859-5.11865-5.81836-1.55371-1.75488Zm5.39258-5.44971s-.09131,0-.09131.09229h-.09131l-4.02148,3.78711,7.0376-4.80322-2.8335.92383Zm1.82812,13.20752l3.47314,1.0166-1.00537-8.31348-.73096-6.28027-1.18848,9.23633-.54834,4.34082Zm6.12402,19.30371l-4.75293-1.66211-.73145,6.1875,5.48438-4.52539Zm-3.47363,11.08301l1.73682-5.44922,1.73682-5.26465-5.48438,4.61816,1.00537,2.95605,1.00537,3.13965Zm5.02734-14.96191l-6.12402,2.03125,4.66162,1.66309,1.09668-2.77148.36572-.92285Zm-4.02148-14.68555l.36523-.83105,2.28516-4.89551-3.01611-6.18848-1.37109-2.67822,1.73682,14.59326Zm2.9248-5.91113l6.58057-6.46582-11.15088-2.67822,4.57031,9.14404Zm3.19873,34.54297l-2.8335-7.94336-.63965-1.84668-.27441.92383-3.19873,10.06738,3.10742-.46191,3.83887-.73926Zm-6.03223-28.2627l3.01611,1.01562-.45703-6.55762-.27441.64648-2.28467,4.89551Zm5.94092,27.06152l-1.82812-12.46875-1.4624,3.60254,2.8335,7.85059.45703,1.01562Zm-3.10742-33.15723l1.4624,5.63379,1.64502,6.37305,3.47314-18.28711-6.58057,6.28027Zm.09131,1.29297l.27393,5.91113,2.37646,4.24902-1.00537-4.15625-1.64502-6.00391Zm8.22607,9.88281l-5.11865,1.38574-1.73633,7.2041,6.85498-8.58984Zm-1.27979,13.48438l.45703-4.43262.91406-8.86719-6.94629,8.86719.73096.64648,4.84424,3.78613Zm-.09131.27734l-3.83887-3.04785-1.64502-1.38574,1.18799,7.94336.82275,5.54199,1.4624-3.69434,2.01074-5.35742Zm0-31.49512l-3.56445,18.10254-.0918.46191,10.41992-14.03906-6.76367-4.52539Zm5.30127,11.91406l-8.5918,6.83496,4.93555-1.38477,3.65625-5.4502Zm-.45703,25.39941l-4.66162-5.63379-3.47314,9.14355,8.13477-3.50977Zm1.82764-32.32617l-9.77979,13.2998,8.86621-7.01953.91357-6.28027Zm-1.82764,31.86523l-2.01074-10.89941-1.18848,2.49414-1.37109,2.95508,4.57031,5.4502Zm-4.47852-6.09668l2.46777-5.26465-1.09717-6.92676-.45703,3.69434-.91357,8.49707Zm1.4624-13.02246l.54834,3.78711.54834,3.69434,1.00537-1.66309,1.82812-3.23242-1.27979-.83105-2.65039-1.75488Zm.09131-.27734l1.2793.83105,2.65088,1.75488v-3.60156l-.18311-4.71094-3.74707,5.72656Zm3.10742,18.75l.82275-15.33203-2.8335,4.70996,2.01074,10.62207Zm4.84424-16.62598l-2.46777.55469-1.27979.27734-.09131,1.47754-.73096,14.22363,4.56982-16.5332Zm2.19385,6.55859l-2.10254-6.37305-4.47852,16.7168,6.58105-10.34375Zm-6.21533-14.96289l4.75293-1.47754-3.65625-4.89551-1.09668,6.37305Zm0,.64648l.18262,5.91113.09131,2.40137,1.4624-.36914,2.19385-.55469-3.10791-5.81836-.82227-1.57031Zm.09131-.36914l3.93018,7.48047.91406-8.95898-2.37646.73926-2.46777.73926Zm4.20459,7.85059l1.82764,5.91113-1.09668-14.22363-.73096,8.3125Z"/>
    <path class="cls-1" d="m463.1075,102.64633v.0918l-2.37598,8.95898v.09277l-1.55371,2.2168.27441,1.29297s0,.0918-.0918.18457l-11.97363,11.08301-7.12891,2.58594h-.0918l-6.76367,1.75488h-.18262l-6.94629-.18457-7.31152-2.67773-5.66699-1.47852h-.0918l-7.86035-8.3125-3.56445-1.84668-.0918-.09277-3.47266-12.28418.36523-11.17578s-.09082,0,0-.0918l3.47363-8.2207,3.19824-7.38867c.0918,0,.0918-.09277.18359,0l1.73633-.36914,7.86035-8.2207q0-.09229.0918-.09229h.09082l3.29102-.36914,10.51074-2.12451h.18262l.82227,1.29297,5.11914-.73877.09082.09229.0918.09229,13.07031,5.07959h.09082l2.28516,1.0166h.0918l10.96777,12.09961q.0918,0,.0918.0918v2.12402l1.1875,15.4248v.09277Zm-57.85645-11.08398l-4.84375,1.0166-1.64551.36914-.36523,10.71387,6.85449-12.09961Zm-2.65039,12.56152l2.55957-11.91504-6.67188,11.73047,4.1123.18457Zm5.75879,12.65332l-5.75879-12.46875-4.02148-.09277,9.78027,12.56152Zm-1.7373.27734l2.01074.36914-10.05371-12.83789,3.29102,11.54492,4.75195.92383Zm-1.2793-25.76953l-1.64551-3.32422-1.46191-3.04785-3.38184,7.75781,6.48926-1.38574Zm8.04297-8.03516l-7.95117-5.81836-3.1084,7.01953,11.05957-1.20117Zm1.82812,11.26855l-1.64453-11.08398-11.05957,1.29297,12.7041,9.79102Zm-9.59668-3.2334l9.04883,3.14062-12.06543-9.32812,3.0166,6.1875Zm2.55859,26.32324l-2.19336-.36914-3.38184-.64648,2.74219,1.38574,2.83301-.37012Zm-5.30078-13.48438l4.66113,1.66211-2.10156-13.66895-2.55957,12.00684Zm5.75781,12.65332l-.91309-9.32812-.0918-1.38574-4.66113-1.66211,1.91895,4.15625,3.74707,8.21973Zm3.74805-34.54297l-5.30176-5.26465-1.46191.27734,6.76367,4.9873Zm-3.56445,35.4668l-3.19922.55371,7.2207,7.57422-4.02148-8.12793Zm2.28418-14.87012l.27441-.46191,3.83887-7.48145-9.41406-3.3252,5.30078,11.26855Zm-3.29004,2.86328l3.19922-2.67871-5.20996-10.80664.82227,5.44922,1.18848,8.03613Zm11.24219-28.54004l-3.92969-8.40527-7.76953,8.03613,11.69922.36914Zm-11.60742-.09277l6.21484,6.09668,5.30176-5.81934-11.5166-.27734Zm5.75781,29.37109l-2.10254-3.23242-3.19824,2.77051,9.50488,7.01953-4.2041-6.55762Zm-.09082,6.92773l-5.20996-6.92773,1.09668,11.08398,7.67773.55371-3.56445-4.70996Zm3.74707,4.52539l.73145-3.23242.27344-1.1084-9.50488-6.92773,3.10742,4.15625,5.39258,7.1123Zm0,.36914l-7.76953-.55371,9.68848,9.88281-1.91895-9.3291Zm-7.49512,0l4.02148,8.12793,5.20996,1.29297-9.23145-9.4209Zm5.02734-16.07031l-2.01074.64648-1.09668.27637,7.95117,7.01953-1.91895-3.23242-2.9248-4.70996Zm-3.0166.64648l3.0166-.92383.73145-6.46582-3.74805,7.38965Zm.27441.83105l6.30664,9.60547,1.64551-2.58594-7.58691-6.65039-.36523-.36914Zm2.28516-20.31934l6.03223,1.57031-.82227-7.38965-.63965.73926-4.57031,5.08008Zm0,.18457l3.38184,5.63379,2.55859-3.87891-4.93555-1.47754-1.00488-.27734Zm1.46191,10.71387l1.7373-4.89551-3.19922-5.44922.45703,3.3252,1.00488,7.01953Zm.0918.55371l-.82227,7.29688,5.20898,8.49707,7.4043,4.34082,5.11816.64746,5.66699-2.58691v-.0918l6.03223-4.34082,2.83301-6.55762-.36523-6.28125v-.0918l-4.2959-8.77441-6.76367-4.52637-8.04297-1.29297-7.2207,4.06445v.0918l-2.83398,4.15625-1.91895,5.26465v.18457Zm3.74707-17.8252l2.46777-6.37305-6.30664-1.84766,3.83887,8.2207Zm1.91992-6.83496l-1.09668-.73926-1.55371-1.01562-2.74219.18457,5.39258,1.57031Zm-3.10742,43.59473l-.54883,2.12402-.45703,2.2168,12.61328,1.93945-11.60742-6.28027Zm-.45703,5.44922l-.45703-.55371,1.91895,9.23535,6.85547,2.40137-8.31738-11.08301Zm7.76855,6.37305l.0918-.09277,4.75293-5.0791-12.79688-2.03223,7.3125,6.64941.63965.55469Zm-.09082.18457l-7.4043-6.55762,8.31738,10.99121-.91309-4.43359Zm-7.12988-12.28418l11.5166,6.28125-9.87109-8.86719-1.64551,2.58594Zm1.18848-45.16455l9.32227,2.771.36621-1.20117.73145-2.30859-6.76367.46191-3.65625.27686Zm2.65039,2.12451l5.5752.55371-8.22559-2.30859,1.09668.73828,1.55371,1.0166Zm-2.55859,6.83496l7.76855,3.50977-5.20996-9.97559-.63965,1.47754-1.91895,4.98828Zm.82227,7.75781l6.94629-4.06348-7.76855-3.50977.82227,7.57324Zm9.50586-17.7334l-.73145-1.1084-8.31738,1.75488,9.04883-.64648Zm-2.65137,47.84375v-.09277l-6.21484-3.50977,9.04883,8.12793-2.83398-4.52539Zm-4.93555-44.42578l5.20996,9.79004,1.00586-7.38867.27344-1.75488-6.48926-.64648Zm3.38184,55.23145l.91406,4.61816,6.39844.18457-7.3125-4.80273Zm.36621-.73828l9.7793-4.89551-5.20996.09277-2.74121,2.8623-1.82812,1.94043Zm7.31152,5.54102l6.21582-3.23242-13.52734-1.57031,7.31152,4.80273Zm2.9248-10.43652l-10.05371,5.26465,13.61816-.73926-3.56445-4.52539Zm3.65625,7.01953v-2.2168l-12.7959.64648,12.7959,1.57031Zm-7.58594-11.54492l-4.84473-.55469.63965,1.0166,2.37695,3.78613,1.82812-4.24805Zm-4.66211-35.00488l7.58691-3.14062-6.30664-6.18848-.82324,5.63379-.45703,3.69531Zm7.95215,1.38477l-.0918-1.47754-.18262-2.86328-7.31152,3.04785,7.58594,1.29297Zm-5.48438-14.68506l-1.09668,3.41748.36621-.27734,5.30078-3.69434-3.83887.46143-.73145.09277Zm-.91406,3.87939l6.21582,6.0957,3.65625-6.83496.09082-.27734-9.96289,1.0166Zm5.94141-4.43359l-5.66699,3.97168,1.64551-.46191,4.84375-1.47754-.82227-2.03223Zm1.00586,2.30859l-6.12402,1.75488,8.77441-.83105-1.64551-.55371-1.00488-.37012Zm1.2793,46.36621l.63965-2.2168-7.31152,6.74219,5.39258-.09277,1.2793-4.43262Zm-4.84473.18457l-1.73633,4.06348,6.76367-6.46484-5.02734,2.40137Zm6.12402,13.57715l1.46289-.37012-.27441-1.38477-5.30176,2.86328,4.11328-1.1084Zm-3.19922-62.25195l.73145,1.84766,2.65039.92285-.18262-.18457-3.19922-2.58594Zm.0918,10.62109v.83203l.18262,3.32422,1.73633-2.95508,3.56543-6.00391-.64062.55469-4.84375,4.24805Zm11.60742-6.1875l-11.4248-4.52588,3.65625,3.04736,7.76855,1.47852Zm-11.24219,5.44922l4.2959-3.69434,1.09668-.92383-1.91895-1.93945-1.18848,2.12402-2.28516,4.43359Zm6.49023-.18457l-.91406-4.15625-5.48438,9.14355,6.39844-4.9873Zm.09082.36914l-6.48926,4.9873,7.2207.83105-.73145-5.81836Zm.63965,6.0957l-7.03711-.83105,6.12305,4.24902.91406-3.41797Zm-4.84375,29.83301l-1.91992,6.83496,9.04883-6.83496h-7.12891Zm-1.91992,7.11133l3.56445,4.52637,5.48438-11.36035-9.04883,6.83398Zm9.14062-7.2959l-.63965-2.03223-.73145-2.03223-5.5752,4.06445h6.94629Zm-5.75879-42.48633l.82324.83105,1.00488,1.01562,5.75879-.36914-7.58691-1.47754Zm4.66211,45.44141l-4.3877,9.14355v.37012l.0918,1.38477,4.2959-10.89844Zm-.64062,11.17578l-3.65527.55469v.36914l.18262.92383,6.12402-2.125-2.65137.27734Zm1.91992-13.48438l-2.37695,5.81836-3.10742,7.94336,7.03809-.92383-1.55371-12.83789Zm-3.10742-36.85254l4.66113-2.95508-5.5752-1.20117.45703,2.12402.45703,2.03223Zm5.5752-4.61816l-5.84961.37012,5.11816,1.10742.73145-1.47754Zm-1.82812,22.53613l-.36523-1.47754-2.65137-9.60547-.82227,3.3252,3.83887,7.75781Zm-3.19922-13.57715l.27441,1.93945,2.74219-1.84668,2.74219-1.93945-6.21582-2.125.45703,3.97168Zm4.2959-7.2041l-4.66113,3.04785,6.21484,2.03223-.45703-1.66211-1.09668-3.41797Zm1.73633,5.54199l-5.66602,3.78711,11.60742,8.12695-5.94141-11.91406Zm-5.66602,4.06348l3.29004,12.00684,8.31738-3.78613-11.60742-8.2207Zm7.03711,19.67285l-6.21484,5.54199.36523,1.01562,1.09668,2.95605,2.46875-4.89551,2.28418-4.61816Zm-3.38184-1.01562l-2.65039,6.0957,6.21582-5.54102-3.56543-.55469Zm3.47363,15.88672l-4.75293-4.71094.54883,4.80273,1.00488,7.94336.27441-.73926,2.9248-7.2959Zm.36523-15.24023l-5.02637,9.97559,10.96777-6.74316-2.9248-1.56934-3.0166-1.66309Zm5.94141,3.60254l-10.96777,6.74219,4.75293,4.52539.09082.18457,6.12402-11.45215Zm-9.68848-4.43359l1.18848.18457,2.37598.36914-1.37109-2.12402-2.65039-4.34082.45703,5.91113Zm.73145-4.52539l3.01562,4.9873,4.84473-3.41797-8.86621-3.13965,1.00586,1.57031Zm12.06445-1.94043l-4.66113-3.69434-8.04297,3.69434h12.7041Zm-12.7041.27734l8.68262,3.14062,3.83887-3.14062h-12.52148Zm3.56445,22.35156l-3.29102,8.03516,11.24219-10.43652-7.95117,2.40137Zm-2.55957-45.71875l-.63965,1.38574,1.2793,4.06348-.63965-5.44922Zm.18262-.27734l.73145,6.37305.91406-3.69434.54883-1.84766-2.19434-.83105Zm1.28027,4.9873l-.45703,2.03223,12.06445,5.54199-10.51074-11.54492-1.09668,3.9707Zm-.27441,2.49414l.09082.27734,5.75879,11.6377,6.21484-4.3418-12.06445-7.57324Zm12.24707,7.38867v-1.84668l-10.96777-5.08008,10.96777,6.92676Zm-4.56934,19.39648l-6.12402,11.36035,7.95215-3.78711-1.82812-7.57324Zm-1.18848-7.2041l-2.37598,1.75488-2.46777,1.66211,5.84961,3.23242-.54883-3.97168-.45703-2.67773Zm3.0166,15.05469l-6.58105,3.13965,6.85449-2.12402-.27344-1.01562Zm-3.47363-22.53613l4.66113,3.69434,1.46289-7.94336-4.11328,2.86328-2.01074,1.38574Zm3.65625,7.85059l-3.0166-.46191,1.00586,6.46484.63965-1.93945,1.37109-4.06348Zm.82227-3.60254l-3.65625,2.95605,2.19434.27734.73047.0918.73145-3.3252Zm-.54785,3.69434l-2.10254,6.09668,4.66113-2.58691.82324-.46094-.27441-.18555-3.10742-2.86328Zm.36523,4.98828l-2.46777,1.47754,2.28516,3.78711.91406,1.56934,2.28516-8.49707-3.0166,1.66309Zm.63965,7.11133l-3.0166-4.9873,1.7373,7.01953,1.2793-2.03223Zm-.18262-15.79395l-.18262.92383-.54883,2.49414,2.01074,1.84668,1.18848,1.0166-2.46777-6.28125Zm.0918-.36914l2.46777,6.28027-1.09766-13.76172-1.37012,7.48145Z"/>
    <path class="cls-1" d="m519.1407,126.19808v3.3252c0,.0918,0,.18457-.09082.18457h-5.94141l-4.84375-.73926-7.4043,1.38574-12.6123-.64648h-2.9248l-2.28516.64648-9.23145-.64648-3.0166-1.20117c0-.0918-.09082-.0918-.09082-.18457l.63965-10.43652-.91406-1.57031v-.0918l2.28516-8.68262-1.09766-6.0957v-.09277l1.00586-4.24805q-.0918,0-.0918-.09277l.0918-14.5v-3.04883l-.63965-2.21582v-.09277l.63965-8.03516s.0918,0,.0918-.09277l.09082-.0918,1.28027-1.66309q0-.09229.09082-.09229l11.79102-.64648.09082.09229h.0918l3.10742.92383q.0918,0,.0918.09229l.27344,7.11182v9.23633l.91406,3.04785s.0918.0918,0,.0918c.0918,0,0,.09277,0,.09277l-1.2793,7.38867.73145,11.08398v8.86621l2.19336-.83105h.18262l7.95215,1.2002,16.45215-1.2002c.09082-.09277.09082,0,.18262,0l2.10254,1.75488.09082.09277.63965,3.78613-.63965,6.83496Zm-39.94141-11.54492l-6.30664-6.83496-2.19336,8.3125,8.5-1.47754Zm-7.76953,3.04785l6.85547-2.67871-7.58594,1.38574.73047,1.29297Zm1.09668,9.97461l-.73047-6.37305-.27441-2.12402-.54883,8.95898,1.00586-.27734.54785-.18457Zm.0918.18457l-1.2793.46191-.18359.09277,2.46875.92383-1.00586-1.47852Zm.0918-.64648l4.1123-9.88281-5.20996.55469.82324,6.74219.27441,2.58594Zm.18262-19.76465l9.04883,2.40137-10.05469-8.2207,1.00586,5.81934Zm.82227-9.88281l1.46289-2.86328-2.37695,2.40137-.82227,3.60156,1.73633-3.13965Zm8.22656,11.91406l-5.48438-9.79004-3.38184,1.29297-1.09668.46191,3.74707,3.14062,6.21582,4.89453Zm-9.87207-8.4043l4.2959-1.66309-.63965-4.9873-3.65625,6.65039Zm4.75293-28.1709l-3.92969-3.50977-.73145,7.57422,4.66113-4.06445Zm-.09082,8.12793l-4.47852-3.50977.63965,1.75488,3.83887,1.75488Zm-4.47852,36.5752l4.66113-.55371h.09082l2.01172-2.03223-6.76367,2.58594Zm.09082-40.4541l3.74805.92383,5.75781,1.38477-3.29004-4.24805-1.64551-2.12402-4.57031,4.06348Zm5.30176,4.24902l2.37598-1.0166,1.64551-.64648-9.14062-2.30859,5.11914,3.97168Zm-4.84473,15.42383l2.74219-2.77051.0918-.18457-2.74219-10.34473-.0918,13.2998Zm4.47852-15.33203l-4.38672-1.93945v2.77051l4.38672-.83105Zm.18262,44.24121l-.09082-1.29297-.45703-6.74219-4.02148,9.88281,4.56934-1.84766Zm-1.09668.73926l-3.47266,1.29297,1.00488,1.66211,3.29102-3.23242-.82324.27734Zm-3.38184-57.26465l3.65625,3.2334-1.82812-4.34131-1.82812,1.10791Zm0,13.66992l2.83398,10.80566,4.2041-4.70996-7.03809-6.0957Zm.18359-.18457l6.85449,5.91113-.82227-2.40137-.91406-2.67871-5.11816-.83105Zm9.13965,27.52344l-9.13965-2.40137,6.21484,6.74219,2.9248-4.34082Zm-7.86035-42.20898l.18262-.09277-.45703-.46143-.91406,1.29248,1.18848-.73828Zm-1.00586,14.50098l4.75293.73828-.63965-1.57031-4.2041.83203h.09082Zm4.02148,43.59375l-3.29004,3.41797,8.5918.55371-5.30176-3.97168Zm-2.55859-58.27979l6.85449-.83105-7.31152.36914.45703.46191Zm.18262.27734l1.91895,4.71045,9.23145-.64648-11.15039-4.06396Zm11.4248,3.97119l-.63965-5.26465-10.51074,1.20117,11.15039,4.06348Zm-10.60254,21.88965l.64062,4.9873,3.38184-9.4209-3.19922,3.50977-.82324.92383Zm7.86035.27734l-3.56445,2.58594-3.47266,2.67871,6.30664,2.95508.36523-4.15625.36523-4.06348Zm-3.47266-4.9873l-2.19336,6.37305-1.28027,3.50977,6.94629-5.17285-1.09668-1.57031-2.37598-3.13965Zm2.74219,13.48438l-6.21582-2.95508,2.74219,4.9873,2.74219,4.89453.73145-6.92676Zm-5.30176,22.81348l8.68359-10.62207-9.32324,2.40137.63965,8.2207Zm8.86621-53.2002l-9.32324.64648,12.06543,7.66602-2.74219-8.3125Zm-4.3877,7.2041l6.76367,1.20117-11.60742-7.48145.36523.46191,4.47852,5.81836Zm-4.84375,37.40625l8.5918-2.12402h-6.48926l-2.10254,2.12402Zm1.09668-33.61914l9.13965.46191-9.7793-2.125.09082.27734.54883,1.38574Zm4.47852,46.5498l-1.82812-5.72656-3.29004,1.75488,5.11816,3.97168Zm-1.64551-6.00293l4.47949-7.75879-4.11328,4.9873-3.65625,4.43359.91406-.46191,2.37598-1.2002Zm7.40332-40.17773l-6.48926-3.87891-4.1123,1.66211,7.2207,1.57031,3.38086.64648Zm.36621.46191l-10.51074-.64648,1.1875,3.60156.54883,1.75488,4.2959-2.30859,4.47852-2.40137Zm-2.55957,30.47949l-4.02148-4.43359-.54785.83105-2.28516,3.60254h6.85449Zm2.74219-30.29492l-4.66113,2.40137-4.20508,2.30957,1.82812,2.30859,1.7373,2.40137,3.19824-5.72656,2.10254-3.69434Zm-1.91895,40.82422l2.19336-10.06738-1.09668,1.29297-6.94629,7.57324,5.84961,1.20117Zm-2.10254,2.49316l2.01074-2.30859-2.9248-.64648-2.83301-.46191,1.73633,5.72656,2.01074-2.30957Zm1.64551-12.83789l-3.19922,5.26465-1.73633,3.04785,7.67676-8.3125h-2.74121Zm-3.83887-9.69824l-.45703,4.52539,4.1123-5.17188-3.38184-1.66211-.27344,2.30859Zm6.58008,9.23633l-2.74121-9.60547-4.2959,5.26465,2.37598,1.47754,4.66113,2.86328Zm-6.85449-34.45117l6.67188,3.97168v-2.86328l-6.67188-1.1084Zm4.11328,34.72852h2.55859l-6.30664-4.06445,3.74805,4.06445Zm-3.0166-18.93457l-.54883,6.46582,5.57617-7.48145-4.84473-.64648-.18262,1.66211Zm3.29004,1.66309l-3.74707,5.26465,3.38184,1.66211,1.18848-5.26465.82227-3.87891-1.64551,2.2168Zm-2.01074,32.1416l1.7373-3.41797-3.38184,3.87988,1.64453-.46191Zm-.91406-35.65137l4.84473.55371,1.18848-6.92676-6.0332,6.37305Zm.36621-.73926l5.75781-6.0957-.82227-2.67871-4.93555,8.77441Zm2.74219,32.51172l-.91406,1.84668-1.00586,2.03223h2.74219l-.82227-3.87891Zm2.01074-51.63086l-.18359-6.28027-2.9248-.92383.45703,1.01611,2.65137,6.18799Zm-3.1084-6.6499l.54883,4.80322,2.46777,2.12402-3.0166-6.92725Zm3.19922,7.48193l-2.46777-2.125,2.46777,7.57422v-5.44922Zm-2.46777,29.55566l2.74219,1.10742-.63965-10.15918-2.10254,9.05176Zm2.74219,1.47754l-2.19336-1.0166-.45703-.18457.82227,2.86328,1.82812,6.18848v-7.85059Zm-1.37109,23.18262l.73145-4.24902-1.55371.55469.54785,2.67871.27441,1.01562Zm.91406-5.17188l.45703-7.57422-.27441.92383-1.82812,7.85059,1.55371-.55371.0918-.64648Zm5.02734-.64746l-4.93555,1.47852-.82324,4.52539,5.75879-6.00391Zm5.02637,3.60254l-1.1875-1.01562-3.38184-2.67871-6.0332,6.28027,10.60254-2.58594Zm.27441.18457l-10.51074,2.49414,11.60742.55371-.73047-2.03125-.36621-1.0166Zm-9.59668-11.91406l-.54883,7.57324-.09082,1.84766,1.73633-.55469,3.47266-1.1084-1.55371-2.58594-3.01562-5.17188Zm.09082-.37012l8.68359,4.34082-6.48926-5.17188-2.19434.83105Zm.18359.27734l1.00488,1.75488,3.56445,6.00391.91406-.55469,3.65625-2.49316-9.13965-4.71094Zm9.32227,4.43359l.54883-4.24902-7.40332-1.2002,6.85449,5.44922Zm5.11816,6.46484l-5.02637-6.0957-4.66211,3.14062,3.29102,1.01562,6.39746,1.93945Zm-4.93555.92383l4.84473-.64648-9.32324-2.95605,4.47852,3.60254Zm0-7.29688l7.86035.64648-7.2207-4.89453-.36523,2.12402-.27441,2.12402Zm.0918,7.57422l.18262.55371.91406,2.40137,6.76367-1.2002-7.86035-1.75488Zm5.30078-1.0166l2.9248-5.63379-8.13379-.64648,5.20898,6.28027Zm2.74219,2.58691l-2.74219-2.30957-4.75293.55469,7.49512,1.75488Zm.27441-8.49805l1.73633-3.04785-9.13965-1.84668,7.40332,4.89453Zm1.91895-3.23242l6.21582-3.04785-15.17285,1.20117,8.95703,1.84668Zm5.02734,4.43359l-9.7793,4.89551,2.83301,2.49316,6.94629-7.38867Zm-6.76367-.92383l-2.9248,5.54199,9.78027-4.89551-6.85547-.64648Zm.91406-1.75488l-.82227,1.47754,4.1123.46191,2.55957.18457-5.02734-3.60156-.82227,1.47754Zm3.83887,10.71387l2.19336-7.94336-6.76367,7.29688,4.57031.64648Zm.73145-9.79004l1.73633,1.2002,3.29004-5.0791-8.4082,1.38477,3.38184,2.49414Zm-2.9248-2.77051l7.86035-1.29297-1.91992-1.66309-5.94043,2.95605Zm7.95117,9.14355l-1.09668-1.57031-2.10156-3.14062-1.7373,6.09668-.54785,1.84668,2.10156-1.2002,3.38184-2.03223Zm-5.30078,3.41699h5.39258v-3.13965l-5.39258,3.13965Zm5.02734-9.5127l-2.83398,1.1084,3.19922,4.70996.54883-6.18848-.91406.37012Zm-2.74219.83105l3.65625-1.47754-.54883-3.3252-3.10742,4.80273Z"/>
    <path class="cls-1" d="m575.53816,68.47201v.18506l-4.57031,9.23633-12.24805,17.54785v.09277l-2.46777,6.55762-2.74219,2.67871-.36523,14.59277,1.2793,10.5293s0,.09277-.09082.09277l-3.65625.64648h-.18262l-6.58105-.64648-5.20996.64648h-.09082l-4.93555-1.20117v-.18457l1.46191-4.34082-.54785-14.13184v-.18457l1.1875-4.61816-3.29004-2.58594-.0918-.0918-3.65527-10.16016-6.30664-8.86621-.0918-.09277c0-.09277-.0918-.09277-.0918-.18457l-6.67188-6.83496q-.0918-.09277,0-.18457l-3.10742-8.68213v-.18457h.09082l4.20508-.5542h.09082c0-.09229.0918,0,.0918,0l6.85547.27686,7.49414.27734.0918.09229,1.55371,1.84668,3.38184,7.20508,2.37598,2.95508s.0918.09277.0918.18457v.09277l5.75781,9.97461,1.64551-.92383,3.65625-10.15918.09082-.09277h.0918l5.75781-11.72949c0-.09229.0918,0,.0918,0l10.69336-.36963,8.95801,1.29297Zm-59.77637,8.49756l9.96289,1.57031-12.8877-9.97559,2.9248,8.40527Zm-2.83301-8.68213l12.61328,9.79053-8.68359-10.34473-3.92969.5542Zm9.50586,15.60889l4.75195-1.47754-11.05859-4.9873,6.30664,6.46484Zm3.74707-4.9873l-9.68848-1.57031,10.78516,4.89551-1.09668-3.3252Zm-.18262-.55371l-.91406-3.97168-1.46289-6.37305-6.48926-.27734,8.86621,10.62207Zm8.95703,13.57715l-7.58594-9.3291-3.19922,1.01562-1.55371.46191,12.33887,7.85156Zm.18262.36914l-12.33887-7.85059,6.12402,8.49707,6.21484-.64648Zm-8.95703-14.22363l1.2793-7.01953-1.1875-.92383-2.37695-1.93945.54883,2.58594,1.73633,7.29688Zm1.46191-7.2041l1.09766-.83203,2.19336-1.75439-6.85547-.27686,3.56445,2.86328Zm-1.2793,7.75781l9.50586-1.47754-8.22656-5.91113-1.2793,7.38867Zm1.18848,3.69434l5.75781-.36914-6.85449-2.95508,1.09668,3.32422Zm8.4082-4.9873l-9.23145,1.47754,7.2207,3.04785,2.01074-4.52539Zm-.73047,14.59375l-1.09668-7.75879-.27441-1.93945-6.21582.27734,7.58691,9.4209Zm-7.3125-20.78223l8.04297,5.72656-3.19824-6.64941-4.84473.92285Zm.0918-.27637h.27441l4.29492-.92383-1.2793-1.57031-3.29004,2.49414Zm7.31152,21.6123l-6.30664.64648,3.47363,9.79004,2.83301-10.43652Zm.45703,13.20801l-.45703-12.37695-2.65039,9.88281,3.10742,2.49414Zm1.64551,22.44336l-.91406-2.30859-2.55957,3.41699,4.47852,1.1084-1.00488-2.2168Zm-3.38184-45.90332l1.46289,9.5127,2.92383-11.26758-.73047.27734-3.65625,1.47754Zm2.28516,43.41016l-.45703-.27734-.54883-.27734-1.2793,3.60254,2.28516-3.04785Zm-2.19336-43.78027l2.10156-.73828,2.10254-.83105-2.10254-2.86328-2.10156,4.43262Zm2.10156,29.00195l4.20508.83105-.91406-1.2002-3.56543-4.34082-1.1875,4.43262,1.46191.27734Zm-1.37109,0l8.04395,12.74609-2.19434-11.54492-5.84961-1.20117Zm1.7373,14.59277l6.48926-1.2002-3.74805-5.91113-4.47852-7.1123,1.7373,14.22363Zm-1.18848-.55371l.91406.46191-1.46289-12.00684.54883,11.54492Zm3.10742-43.41016l-2.9248,10.89844,2.65039,9.3291.0918-9.14355.18262-11.08398Zm-2.55957,24.01367l2.19434-3.13965-2.55957-8.95898.27441,9.14355.09082,2.95508Zm4.84473,6.18848l4.2959-10.99121-9.04883,5.17285,4.75293,5.81836Zm-2.37695-9.14355l-2.10156,2.86328,8.04297-4.52539-4.2041,1.2002-1.7373.46191Zm5.02734,27.24707l-6.76367-3.97168,2.01074,4.61816,4.75293-.64648Zm-.27441-5.35742l-1.64453.27734-4.75293.92383,6.85449,4.06348-.27344-3.50977-.18359-1.75488Zm-4.75293-22.44336l3.1084-6.00391,2.83301-5.44922-5.5752-9.79004-.18262,10.62109-.18359,10.62207Zm.18359.27637l2.46777-.64648,4.2041-1.29297-.18262-1.84668-.73145-7.48145-5.75781,11.26758Zm6.76367-1.29297l-2.65137,6.55762-1.73633,4.34082,6.39844,2.30957-2.01074-13.20801Zm1.91895,15.33203l.0918-1.75488-6.39844-2.40137,5.84961,13.48535.45703-9.3291Zm-6.21484-3.3252l2.28516,11.26855,3.29004,1.66211-2.55957-6.0957-3.01562-6.83496Zm5.5752,13.20801l-3.29004-1.66211.54785,4.9873,2.74219-3.3252Zm.27441.18457l-.91406,1.1084-1.91992,2.30957,6.12402.55371-3.29004-3.97168Zm-2.28516-35.83594l1.73633,1.38574,2.74219,2.12402-2.9248-4.34082-1.55371.83105Zm.82227,9.60547l.91406-1.20117,3.10742-4.34082-4.84375-3.78613.82227,9.32812Zm.18262.55371l7.3125,18.10352.27441-13.94727-7.58691-4.15625Zm0,.73926l2.01074,12.93066,3.29102,2.95508,1.73633,1.57031-7.03809-17.45605Zm.0918-1.29297l9.04883-5.17188-5.02734-.27734-4.02148,5.44922Zm9.41406-5.08008l-9.32227,5.35742,10.14453,1.47754-.45605-3.69434-.36621-3.14062Zm-2.28516,6.55762l-6.67188-.92383,7.12891,3.97168,2.55957-2.58594-3.0166-.46191Zm-3.29004-7.38867l.0918-5.17188.18262-9.05176-3.38184,9.60547,3.10742,4.61816Zm-2.01074,21.05859l-.54883,10.80566,4.02148,2.30957-2.10156-7.94336-1.37109-5.17188Zm3.01562,15.05469l.45703-1.66211-3.56445-2.03223,3.10742,3.69434Zm2.37695-10.89844l-5.20996-4.71094,3.47363,13.48535,1.73633-8.77441Zm-3.19922-25.12207l8.68359-8.40527-8.31836-6.28027-.18262,7.38867-.18262,7.29688Zm.27441.0918l5.11816.36914,1.00586-2.58594,2.10156-5.81836-8.22559,8.03516Zm10.78516-22.07422l-4.93555-4.52588-5.66699,11.26807,10.60254-6.74219Zm-2.28516,13.39258l3.0166-5.44922.63965-1.1084-11.88184.27637,8.22559,6.28125Zm2.37695-13.20801l-10.51172,6.74219,11.88184-.27637-1.37012-6.46582Zm-8.5918,56.70996l-1.00586-.46191-.54785,1.57031,3.10742-.46191-1.55371-.64648Zm-.54883-2.77051l-.45703,2.12402,2.83398,1.1084-1.09668-9.60547-1.28027,6.37305Zm6.76367-34.91309l-3.19922,3.3252.82324,6.46484,1.64453-6.74219.73145-3.04785Zm-3.01562,2.86328l3.10742-3.3252-.18262-4.43262-2.9248,7.75781Zm.54785-26.69238l4.93555,4.52539,5.11816-4.80225-10.05371.27686Zm2.55957,24.66016l-1.37109,5.26465-.54883,2.49414,1.7373-4.71094v-.27637l.18262-2.77148Zm.09082-6.37305v1.20117l.0918,3.69434,11.4248-12.56055-11.5166,7.66504Zm.0918,5.26465l-.0918,3.87988,11.15137-16.07129-11.05957,12.19141Zm3.65625-12.09863l-2.55957,4.61816-1.00488,1.75488,11.33301-7.48145-7.76855,1.1084Zm-.45703-2.30957l.45703,2.125,7.95117-1.20117-9.23145-5.26465.82324,4.34082Zm-.63965-4.52539l9.50488,5.35645,4.3877-8.95898-13.89258,3.60254Zm5.20898-4.89502l-5.11816,4.71045,13.43555-3.60254-8.31738-1.10791Z"/>
    <path class="cls-1" d="m636.1407,94.79476v10.06738l-.27344,3.97168v.09277l-1.7373,10.99121,1.37109.92285s.0918,0,.0918.09277l-.0918.09277-5.75781,5.81836s0,.09277-.0918.09277l-3.29004,1.47754-.0918.0918-15.62891,2.40137h-2.83398l-4.84375-.55371h-.0918l-8.5-2.77051-.09082-.09277-10.14551-5.81836v-.09277l-4.02246-8.49707v-.09277l-1.91895-1.93945-1.73633-15.60938.91406-6.46484,2.74121-8.95898s0-.09277.0918-.09277l2.83398-1.47754,5.75781-7.01953h.0918l7.31152-3.50977h.0918l15.81152-1.01562h.18359l6.7627.83105,2.65137.09229,6.12305,2.49365.0918.09277,6.39844,5.44922v.0918l.27344,1.47852.0918.0918v.09277h-.0918l-9.87109,10.25195h-.09082l-8.68359-5.35645-7.40332-.83203-6.85449,2.125-2.74219,3.13965-2.65039,3.97168-2.74219,5.72656,3.74707,13.94629,4.2959,3.50977,6.58105,2.03223h4.84375l7.95215-2.40137.27441-7.29688-1.7373-.55371-10.14551.27734s-.09082,0-.09082-.09277l-2.10254-3.04785c-.09082-.09277,0-.09277,0-.09277l1.18848-9.32812.0918-.09277,5.4834-.18457h.18262l9.96289.83105,10.78516-.64648s0,.09277.0918.09277l1.1875,1.1084v.0918Zm-59.50098.64648l4.02148,8.31348-.27441-1.29395-2.9248-12.83789-.82227,5.81836Zm4.2041,9.23633l-4.1123-8.58887,1.64453,14.5,2.46777-5.91113Zm4.02148-7.57324l-3.47266-12.65332-1.18848-4.06445-2.55957,8.58984,7.2207,8.12793Zm-3.83887,7.2041l4.02246-6.65039-7.4043-8.3125,3.38184,14.96289Zm-.27344.92383l-2.28516,5.72656,1.64453,1.84668.64062-7.57324Zm-.36621-25.21484l3.56445,5.54199-.18262-1.0166-.82227-5.81836-1.2793.64648-1.28027.64648Zm.63965,25.49121l-.54785,6.65039-.0918.83105,3.56445,7.75879-1.46191-7.66602-1.46289-7.57422Zm3.93066-9.05078l-.91406-10.34473-3.38184-5.17188,4.2959,15.5166Zm-3.83887,8.12793l8.04297,7.57324-2.65039-9.5127-1.37109-4.80371-4.02148,6.74316Zm3.19922,16.7168l3.38184-3.50977-6.48926-12.37598,3.10742,15.88574Zm4.93555-8.68164l-7.76953-7.38867,6.39844,12.28418.18262-.37012,1.18848-4.52539Zm-6.03223-33.98926l1.00488,6.92773,5.48438-13.11523-6.21582,5.81836-.27344.36914Zm2.01074,18.65723l7.03711-11.6377-8.04297.55469.36621,4.43262.63965,6.65039Zm9.32227-16.80957l-.91406-3.50977-.63965-2.2168-8.5,10.99121,10.05371-5.26465Zm-9.96191-3.50977l5.11816-4.89551-.27441-.18457-.45703-.27734-4.38672,5.35742Zm0,8.3125l8.4082-10.71387-3.01562-2.40137-2.65137,6.28027-2.74121,6.83496Zm3.38184,32.69629l-3.38184,3.41699,14.34961,1.84668-10.96777-5.26367Zm4.56934-32.51172l.91406-2.12402,1.00586-2.49414-4.75293,2.40137-4.93555,2.67871,7.76855-.46191Zm6.76367,38.05273l-14.34961-1.75488,9.41406,5.54199,4.93555-3.78711Zm-7.03809-37.31348l-6.94629,11.36035,2.01074.92383,2.01074.92285,1.64551-7.57324,1.2793-5.63379Zm-6.94629,11.54492l4.02148,14.13086v-12.19141l-4.02148-1.93945Zm4.11328,15.05469l-.54785,1.84766-.82324,3.13965,10.96777,5.17285-9.59668-10.16016Zm-.27441-41.28516l.73145.36914,2.83301-1.75488,2.01172-1.29297-5.57617,2.67871Zm4.20508,25.30664l-3.83887,2.86328,1.64453,4.80273,2.37695,6.46582-.18262-10.99121v-3.14062Zm-3.83887,3.41797v12.2832l1.2793-.36914,2.65039-.64648-3.92969-11.26758Zm3.01562-13.7627l-1.00488,4.24902-1.91992,8.58984,3.74805-2.77148-.82324-10.06738Zm1.00586,25.30762l-3.83887.92383,9.41406,9.97461-5.5752-10.89844Zm-3.29102-39.80762l15.17285,4.80273-9.13965-8.58984-2.55957,1.57031-3.47363,2.2168Zm.27441.27637l2.65039,2.125,10.2373,2.03125-12.8877-4.15625Zm5.48438,18.65723l-3.10742-4.61816-.18359-.36914.36621,5.17188.45703,5.08008,2.46777-5.26465Zm1.09668-9.14355l-2.37598-1.01562-1.91992,4.61719,8.40918-1.66211-4.11328-1.93945Zm1.64551,5.17188l-5.94141-1.2002.54883.73828,2.83301,4.15625,1.2793-1.84668,1.28027-1.84766Zm-5.66699-1.38477l5.84961,1.1084,2.28516-2.77148-8.13477,1.66309Zm1.73633-5.17285l10.60254-3.3252-12.06445-2.30859,1.00488,3.69434.45703,1.93945Zm-1.2793,17.08691l.18262,12.74609v1.29297l3.19922-1.01562-1.37109-5.35742-2.01074-7.66602Zm7.76855,16.71777l-7.49414-2.40137,5.66602,11.17578,1.46289-7.01953.36523-1.75488Zm-4.2041-3.41797l-3.10742.83203,6.85449,2.2168-3.74707-3.04883Zm2.37598,12.83887l-4.93555,3.78711,8.13477,2.67773-3.19922-6.46484Zm6.0332-46.36523l-10.51172,3.32422,6.58105,3.04785,3.93066-6.37207Zm.27344-.37012l2.01074-2.86328,2.01074-2.86328-13.16113-2.95508,9.13965,8.68164Zm4.20508-6.00293l2.01074-3.78711-14.89844.92383,12.8877,2.86328Zm-8.5918,44.05566l-1.73633,8.40527,3.10742,6.28027-1.37109-14.68555Zm1.00488,8.77441l.64062,6.28125,7.31152-8.49805-8.86621-7.11133.91406,9.32812Zm5.84961-42.20898l-2.46777-4.24805-3.92969,6.28027,6.39746-2.03223Zm2.01074,39.62305l-2.19336-4.70996-6.12402-2.03223,8.31738,6.74219Zm-2.55859,9.60547l2.55859-8.68164-7.12891,8.12793,4.57031.55371Zm2.37598-59.57324l-4.02148,5.72656,17.0918-4.80273-13.07031-.92383Zm-1.55371,10.25293l7.95215-2.30957-10.41992-1.84668,2.46777,4.15625Zm8.40918-2.40137l6.03223-6.28125.45703-.46191-17,4.71094,10.51074,2.03223Zm-5.20996,18.47168l-3.19922-3.60156-1.18848,8.68164,2.74219-3.14062,1.64551-1.93945Zm-1.09668,3.41797l.91406-2.95605-.73145.83105-3.47363,4.24902,1.91992,2.77051,1.37109-4.89453Zm-.18262,29.83203v-8.49707l-2.37695,8.49707h2.37695Zm-1.00586-11.91406l1.09668,2.40137,2.28516-4.80273h-4.47852l1.09668,2.40137Zm2.37695-21.52051l2.01074-3.78711-5.11914.27734,3.1084,3.50977Zm5.02637-18.01074l-7.76855,2.2168,6.85449.73926.63965-2.03223.27441-.92383Zm-7.31152,26.50781l8.95703-7.2041-6.58105-1.01562-2.37598,8.21973Zm9.41406-7.11133l-8.95703,7.11133,14.0752-3.50977-5.11816-3.60156Zm-6.67188-31.58789l-1.91992,3.69434,8.13477-2.95557-6.21484-.73877Zm7.21973,38.51465l4.2959-2.95508-13.16113,3.23242,8.86523-.27734Zm-8.86523,16.07129v4.43262l.09082,4.52637,8.22656-4.71094-8.31738-4.24805Zm8.31738-53.75488l-8.22656,3.04785,12.70508.92383-4.47852-3.97168Zm-8.22656,53.47754l8.13477,4.24902-5.75781-9.14453-2.37695,4.89551Zm14.99023,6.92676l-6.48926-2.30859-8.04395,4.61816,14.5332-2.30957Zm-13.70996-30.94043l6.58008,1.01562-4.56934-4.80273-2.01074,3.78711Zm7.12891,28.07715l.63965-4.34082,1.09668-7.2041-7.67773,2.40137,5.94141,9.14355Zm-.18262-27.06152l9.13965-.09277-13.61816-4.61816,4.47852,4.71094Zm9.23145-.27734l-4.11328-3.78613-9.23145-.73926,13.34473,4.52539Zm-11.15137-18.74902l-.63965,1.93945-.27441,1.01562,7.95215,4.98828-7.03809-7.94336Zm7.67773-1.20117l-7.40332,1.0166,7.3125,8.3125.09082-5.63477v-3.69434Zm-1.00488-5.91113l-6.30664,6.65039,2.9248-.36914,4.38672-.64648-.36523-1.84766-.63965-3.78711Zm.73047,29.92578l3.93066-3.69434-9.13965.18457,5.20898,3.50977Zm-2.28418-31.77246l1.1875,1.01562-1.82812-3.41699-2.19336-.09277,2.83398,2.49414Zm-2.83398,55.23242l5.84961-3.2334-2.01074-4.15625-2.10254-4.06348-1.73633,11.45312Zm5.94141-2.95605l-5.75879,3.14062,6.58105,2.30859-.82227-5.44922Zm-4.02148-16.44043l2.10156-2.67871.54883-.73828-4.11328,2.86328,1.46289.55371Zm4.93555,11.54492l.91406.73926-5.66699-11.72949-.27441,6.92676,5.02734,4.06348Zm-4.75293-11.36035l5.75781,11.73047-1.55371-8.68262-1.2793-6.92676-2.9248,3.87891Zm0,7.85059l3.92969,7.94336.54883-.92383,1.46191-2.2168-5.94043-4.80273Zm1.73633-43.68652l.63965,1.2002,2.55957-.92285,1.09668-.46191-5.5752-2.30908,1.2793,2.49365Zm3.19922,4.15625l.63965-2.03223.54883-2.12402-3.56445,1.47754.18262.18457,2.19336,2.49414Zm-2.01074-.46191l.54785,3.3252.64062-1.1084.73047-1.47754-.54785-.64648-1.73633-1.93945.36523,1.84668Zm4.2959,24.01367l7.03809-3.41699-11.24316-.46191,4.20508,3.87891Zm-4.02148,3.97168l7.86035,5.08008-3.83887-8.77441-4.02148,3.69434Zm2.9248,16.34863l5.02637-10.99121-7.95117-4.9873,1.1875,6.83398,1.7373,9.14453Zm-2.55957-40.45508l-.18262,9.05176,4.93555-10.43652-1.73633.46191-3.0166.92285Zm1.46289-2.95508l-.45703.83105-.91406,1.75488,4.47852-1.2002-1.28027-.64746-1.82715-.73828Zm5.02637,1.75488l-1.46191-.27734-4.93555,10.5293,9.23145-9.60547-2.83398-.64648Zm-4.02148,42.30176l-1.91895,3.23242,3.83887,3.87891-1.28027-4.70996-.63965-2.40137Zm2.01074,7.48047l-3.92969-3.87891.82227,5.35742,3.10742-1.47852Zm6.30664-32.04883l-1.00488-.92383-8.5918.46191,9.59668.46191Zm-8.04297-23.8291l-.45703,1.57031-.73145,2.49316,1.82812.83105,1.37109.64648-.63965-1.84668-1.37109-3.69434Zm6.12402,49.22852l-6.21582-.92383,1.00586,3.69434,1.00488,3.69434,2.10254-3.23242,2.10254-3.23242Zm1.73633-10.80664l-7.86035,9.60547,6.21484.92383,1.64551-10.5293Zm-2.83398-1.57031l-4.84375,10.5293,7.58594-9.32812-1.37109-.64648-1.37109-.55469Zm-4.66113-36.94434l1.00586,2.95605.91406,2.77051,3.92969-.55469-5.84961-5.17188Zm.82324,27.61621l1.09668.46191,3.74707,1.47754,1.46289-3.60156.63965-1.66309-6.94629,3.3252Zm3.74707,8.77441l1.09668-6.55762-4.84375-2.03223,3.74707,8.58984Zm2.65039,13.76172l-1.2793-.73926-3.74805,5.81934,5.02734-5.08008Zm-4.75293-44.33301l1.82812.36914,2.01074.46191-.27441-1.29297-3.56445.46191Zm3.29102,24.29102l-.36621,2.58594-.63965,3.87891.63965-.55371,2.37695-2.03223-.63965-1.29297-1.37109-2.58594Zm-.91406,6.64941l2.74219,1.1084.27344-3.60156-3.01562,2.49316Zm1.00488-7.11133l1.82812,3.69434.18262.27734v-9.05176l-2.01074,5.08008Z"/>
    <path class="cls-1" d="m708.35066,102.64633v.0918l-2.37598,8.95898v.09277l-1.55371,2.2168.27441,1.29297s0,.0918-.0918.18457l-11.97363,11.08301-7.12891,2.58594h-.0918l-6.76367,1.75488h-.18262l-6.94629-.18457-7.31152-2.67773-5.66699-1.47852h-.0918l-7.86035-8.3125-3.56445-1.84668-.0918-.09277-3.47266-12.28418.36523-11.17578s-.09082,0,0-.0918l3.47363-8.2207,3.19824-7.38867c.0918,0,.0918-.09277.18359,0l1.73633-.36914,7.86035-8.2207q0-.09229.0918-.09229h.09082l3.29102-.36914,10.51074-2.12451h.18262l.82227,1.29297,5.11914-.73877.09082.09229.0918.09229,13.07031,5.07959h.09082l2.28516,1.0166h.0918l10.96777,12.09961q.0918,0,.0918.0918v2.12402l1.1875,15.4248v.09277Zm-57.85645-11.08398l-4.84375,1.0166-1.64551.36914-.36523,10.71387,6.85449-12.09961Zm-2.65039,12.56152l2.55957-11.91504-6.67188,11.73047,4.1123.18457Zm5.75879,12.65332l-5.75879-12.46875-4.02148-.09277,9.78027,12.56152Zm-1.7373.27734l2.01074.36914-10.05371-12.83789,3.29004,11.54492,4.75293.92383Zm-1.2793-25.76953l-1.64551-3.32422-1.46191-3.04785-3.38184,7.75781,6.48926-1.38574Zm8.04297-8.03516l-7.95117-5.81836-3.1084,7.01953,11.05957-1.20117Zm1.82812,11.26855l-1.64551-11.08398-11.05859,1.29297,12.7041,9.79102Zm-9.59668-3.2334l9.04883,3.14062-12.06543-9.32812,3.0166,6.1875Zm2.55859,26.32324l-2.19336-.36914-3.38184-.64648,2.74219,1.38574,2.83301-.37012Zm-5.30078-13.48438l4.66113,1.66211-2.10156-13.66895-2.55957,12.00684Zm5.75781,12.65332l-.91406-9.32812-.09082-1.38574-4.66113-1.66211,1.91895,4.15625,3.74707,8.21973Zm3.74805-34.54297l-5.30176-5.26465-1.46191.27734,6.76367,4.9873Zm-3.56445,35.4668l-3.19922.55371,7.2207,7.57422-4.02148-8.12793Zm2.28418-14.87012l.27441-.46191,3.83887-7.48145-9.41406-3.3252,5.30078,11.26855Zm-3.29004,2.86328l3.19922-2.67871-5.20996-10.80664.82227,5.44922,1.18848,8.03613Zm11.24219-28.54004l-3.92969-8.40527-7.76953,8.03613,11.69922.36914Zm-11.60742-.09277l6.21484,6.09668,5.30176-5.81934-11.5166-.27734Zm5.75781,29.37109l-2.10254-3.23242-3.19824,2.77051,9.50488,7.01953-4.2041-6.55762Zm-.09082,6.92773l-5.20996-6.92773,1.09668,11.08398,7.67773.55371-3.56445-4.70996Zm3.74707,4.52539l.73145-3.23242.27344-1.1084-9.50488-6.92773,3.10742,4.15625,5.39258,7.1123Zm0,.36914l-7.76953-.55371,9.68848,9.88281-1.91895-9.3291Zm-7.49512,0l4.02148,8.12793,5.20996,1.29297-9.23145-9.4209Zm5.02734-16.07031l-2.01074.64648-1.09668.27637,7.95117,7.01953-1.91895-3.23242-2.9248-4.70996Zm-3.0166.64648l3.0166-.92383.73145-6.46582-3.74805,7.38965Zm.27441.83105l6.30664,9.60547,1.64551-2.58594-7.58691-6.65039-.36523-.36914Zm2.28516-20.31934l6.03223,1.57031-.82227-7.38965-.63965.73926-4.57031,5.08008Zm0,.18457l3.38184,5.63379,2.55859-3.87891-4.93555-1.47754-1.00488-.27734Zm1.46191,10.71387l1.7373-4.89551-3.19922-5.44922.45703,3.3252,1.00488,7.01953Zm.0918.55371l-.82227,7.29688,5.20898,8.49707,7.4043,4.34082,5.11816.64746,5.66699-2.58691v-.0918l6.03223-4.34082,2.83301-6.55762-.36523-6.28125v-.0918l-4.2959-8.77441-6.76367-4.52637-8.04297-1.29297-7.2207,4.06445v.0918l-2.83398,4.15625-1.91895,5.26465v.18457Zm3.74707-17.8252l2.46777-6.37305-6.30664-1.84766,3.83887,8.2207Zm1.91992-6.83496l-1.09668-.73926-1.55371-1.01562-2.74219.18457,5.39258,1.57031Zm-3.10742,43.59473l-.54883,2.12402-.45703,2.2168,12.61328,1.93945-11.60742-6.28027Zm-.45703,5.44922l-.45703-.55371,1.91895,9.23535,6.85547,2.40137-8.31738-11.08301Zm7.76855,6.37305l.0918-.09277,4.75293-5.0791-12.79688-2.03223,7.3125,6.64941.63965.55469Zm-.0918.18457l-7.40332-6.55762,8.31738,10.99121-.91406-4.43359Zm-7.12891-12.28418l11.5166,6.28125-9.87109-8.86719-1.64551,2.58594Zm1.18848-45.16455l9.32227,2.771.36621-1.20117.73145-2.30859-6.76367.46191-3.65625.27686Zm2.65039,2.12451l5.5752.55371-8.22559-2.30859,1.09668.73828,1.55371,1.0166Zm-2.55957,6.83496l7.76953,3.50977-5.20996-9.97559-.63965,1.47754-1.91992,4.98828Zm.82324,7.75781l6.94629-4.06348-7.76953-3.50977.82324,7.57324Zm9.50586-17.7334l-.73145-1.1084-8.31738,1.75488,9.04883-.64648Zm-2.65137,47.84375v-.09277l-6.21484-3.50977,9.04883,8.12793-2.83398-4.52539Zm-4.93555-44.42578l5.20996,9.79004,1.00586-7.38867.27344-1.75488-6.48926-.64648Zm3.38184,55.23145l.91406,4.61816,6.39844.18457-7.3125-4.80273Zm.36621-.73828l9.7793-4.89551-5.20996.09277-2.74121,2.8623-1.82812,1.94043Zm7.31152,5.54102l6.21582-3.23242-13.52734-1.57031,7.31152,4.80273Zm2.9248-10.43652l-10.05371,5.26465,13.61816-.73926-3.56445-4.52539Zm3.65625,7.01953v-2.2168l-12.7959.64648,12.7959,1.57031Zm-7.58594-11.54492l-4.84473-.55469.63965,1.0166,2.37695,3.78613,1.82812-4.24805Zm-4.66211-35.00488l7.58691-3.14062-6.30664-6.18848-.82324,5.63379-.45703,3.69531Zm7.95215,1.38477l-.0918-1.47754-.18262-2.86328-7.31152,3.04785,7.58594,1.29297Zm-5.48438-14.68506l-1.09668,3.41748.36621-.27734,5.30078-3.69434-3.83887.46143-.73145.09277Zm-.91406,3.87939l6.21582,6.0957,3.65625-6.83496.09082-.27734-9.96289,1.0166Zm5.94141-4.43359l-5.66699,3.97168,1.64551-.46191,4.84375-1.47754-.82227-2.03223Zm1.00586,2.30859l-6.12402,1.75488,8.77441-.83105-1.64551-.55371-1.00488-.37012Zm1.2793,46.36621l.63965-2.2168-7.31152,6.74219,5.39258-.09277,1.2793-4.43262Zm-4.84473.18457l-1.73633,4.06348,6.76367-6.46484-5.02734,2.40137Zm6.12402,13.57715l1.46289-.37012-.27441-1.38477-5.30176,2.86328,4.11328-1.1084Zm-3.19922-62.25195l.73145,1.84766,2.65039.92285-.18262-.18457-3.19922-2.58594Zm.0918,10.62109v.83203l.18262,3.32422,1.73633-2.95508,3.56543-6.00391-.64062.55469-4.84375,4.24805Zm11.60742-6.1875l-11.4248-4.52588,3.65625,3.04736,7.76855,1.47852Zm-11.24219,5.44922l4.2959-3.69434,1.09668-.92383-1.91895-1.93945-1.18848,2.12402-2.28516,4.43359Zm6.49023-.18457l-.91406-4.15625-5.48438,9.14355,6.39844-4.9873Zm.09082.36914l-6.48926,4.9873,7.2207.83105-.73145-5.81836Zm.63965,6.0957l-7.03711-.83105,6.12305,4.24902.91406-3.41797Zm-4.84375,29.83301l-1.91992,6.83496,9.04883-6.83496h-7.12891Zm-1.91992,7.11133l3.56543,4.52637,5.4834-11.36035-9.04883,6.83398Zm9.14062-7.2959l-.63965-2.03223-.73145-2.03223-5.5752,4.06445h6.94629Zm-5.75879-42.48633l.82324.83105,1.00488,1.01562,5.75879-.36914-7.58691-1.47754Zm4.66211,45.44141l-4.3877,9.14355v.37012l.0918,1.38477,4.2959-10.89844Zm-.64062,11.17578l-3.65527.55469v.36914l.18262.92383,6.12402-2.125-2.65137.27734Zm1.91992-13.48438l-2.37695,5.81836-3.10742,7.94336,7.03809-.92383-1.55371-12.83789Zm-3.10742-36.85254l4.66113-2.95508-5.5752-1.20117.45703,2.12402.45703,2.03223Zm5.5752-4.61816l-5.84961.37012,5.11816,1.10742.73145-1.47754Zm-1.82812,22.53613l-.36523-1.47754-2.65137-9.60547-.82227,3.3252,3.83887,7.75781Zm-3.19922-13.57715l.27441,1.93945,2.74219-1.84668,2.74219-1.93945-6.21582-2.125.45703,3.97168Zm4.2959-7.2041l-4.66113,3.04785,6.21484,2.03223-.45703-1.66211-1.09668-3.41797Zm1.73633,5.54199l-5.66602,3.78711,11.60742,8.12695-5.94141-11.91406Zm-5.66602,4.06348l3.29004,12.00684,8.31738-3.78613-11.60742-8.2207Zm7.03711,19.67285l-6.21484,5.54199.36523,1.01562,1.09766,2.95605,2.46777-4.89551,2.28418-4.61816Zm-3.38184-1.01562l-2.65039,6.0957,6.21582-5.54102-3.56543-.55469Zm3.47363,15.88672l-4.75293-4.71094.54883,4.80273,1.00488,7.94336.27441-.73926,2.9248-7.2959Zm.36523-15.24023l-5.02637,9.97559,10.96777-6.74316-2.9248-1.56934-3.0166-1.66309Zm5.94141,3.60254l-10.96777,6.74219,4.75293,4.52539.09082.18457,6.12402-11.45215Zm-9.68848-4.43359l1.18848.18457,2.37598.36914-1.37109-2.12402-2.65039-4.34082.45703,5.91113Zm.73145-4.52539l3.01562,4.9873,4.84473-3.41797-8.86621-3.13965,1.00586,1.57031Zm12.06445-1.94043l-4.66113-3.69434-8.04297,3.69434h12.7041Zm-12.7041.27734l8.68262,3.14062,3.83887-3.14062h-12.52148Zm3.56445,22.35156l-3.29102,8.03516,11.24219-10.43652-7.95117,2.40137Zm-2.55957-45.71875l-.63965,1.38574,1.2793,4.06348-.63965-5.44922Zm.18262-.27734l.73145,6.37305.91406-3.69434.54883-1.84766-2.19434-.83105Zm1.28027,4.9873l-.45703,2.03223,12.06445,5.54199-10.51074-11.54492-1.09668,3.9707Zm-.27441,2.49414l.09082.27734,5.75879,11.6377,6.21484-4.3418-12.06445-7.57324Zm12.24707,7.38867v-1.84668l-10.96777-5.08008,10.96777,6.92676Zm-4.56934,19.39648l-6.12402,11.36035,7.95215-3.78711-1.82812-7.57324Zm-1.18848-7.2041l-2.37598,1.75488-2.46777,1.66211,5.84961,3.23242-.54883-3.97168-.45703-2.67773Zm3.0166,15.05469l-6.58105,3.13965,6.85449-2.12402-.27344-1.01562Zm-3.47363-22.53613l4.66113,3.69434,1.46289-7.94336-4.11328,2.86328-2.01074,1.38574Zm3.65625,7.85059l-3.0166-.46191,1.00586,6.46484.63965-1.93945,1.37109-4.06348Zm.82227-3.60254l-3.65625,2.95605,2.19434.27734.73047.0918.73145-3.3252Zm-.54785,3.69434l-2.10254,6.09668,4.66113-2.58691.82324-.46094-.27441-.18555-3.10742-2.86328Zm.36523,4.98828l-2.46777,1.47754,2.28516,3.78711.91406,1.56934,2.28516-8.49707-3.0166,1.66309Zm.63965,7.11133l-3.01562-4.9873,1.73633,7.01953,1.2793-2.03223Zm-.18262-15.79395l-.18262.92383-.54883,2.49414,2.01074,1.84668,1.18848,1.0166-2.46777-6.28125Zm.09082-.36914l2.46875,6.28027-1.09766-13.76172-1.37109,7.48145Z"/>
    <path class="cls-1" d="m775.99226,124.07406l-.64062,5.26465s0,.0918-.09082.0918l-7.3125.64648-6.21484-.0918h-.0918l-2.28418-.37012h-.0918l-4.02148-7.38867-8.95703-9.14355-.18359-.09277-.09082-.0918-4.57031-9.23633-3.65625-2.77051v-.09277l-3.83789-5.91113.36523,9.88281v4.9873l-1.82812,9.88281,2.10254,10.34473h-4.75293l-8.5918-.55469h-3.93066l-.09082-.0918v-.09277l.63965-2.12402h-.0918l-.91406-9.88281v-.09277l1.55469-9.23535-1.82812-10.16016v-.18457l1.55371-4.89551-.54883-7.38867-1.91895-13.66992v-.0918l1.82812-3.87939s0-.09229.09082-.09229l4.84473-.64648h.09082l7.40332.5542,3.38184.64648.0918.09229.18262.36914,9.23145,13.20801,4.93555,3.69434v.09277l3.93066,6.0957q.09082,0,.09082.0918l5.20996,6.74316v.0918l1.2793,3.14062,1.00586-14.59375-1.2793-4.89453v-.09277l1.2793-7.2959s-.0918-.09277,0-.09277l-1.00586-7.7583.0918-.09229h.0918l3.38184,1.20068,9.7793-1.20068h.0918l3.29004.64648q.0918,0,.0918.09229l.63965,5.91064v.09277l-1.00586,4.80273s.0918.09277,0,.09277l.91406,6.00293v.09277c.0918,0,0,.0918,0,.0918l-.63965,16.99512.36523,2.40137v.18457l-1.1875,6.0957,1.82812,13.57715v.09277Zm-56.39453-47.47363l-2.01074-8.58984-1.64453,3.60156,3.65527,4.98828Zm.18262.64648l-3.83789-5.17285,1.82715,12.56152,2.01074-7.38867Zm.64062,31.58691l2.10156-2.40137,2.01074-2.30859-7.58594-6.0957,3.47363,10.80566Zm-3.38184-11.45215l9.23145-4.71094-1.7373-2.40137-1.73633-2.30859-1.91895,3.13965-3.83887,6.28125Zm4.93555-8.58984l-3.65625,4.06348-1.2793,4.06445,4.93555-8.12793Zm-4.84473,8.86621l5.66699.83203,3.29004-5.4502-6.03223,3.04883-2.9248,1.56934Zm6.58105,3.69434l-.91406-2.67773-5.66699-.83203,7.3125,5.91211-.73145-2.40234Zm-3.56445,7.48145l-3.0166-9.60547,1.46289,8.58984,1.55371,1.01562Zm6.48926,16.34863l-4.75293-3.87988-4.75293-3.78613.91406,9.5127,8.5918-1.84668Zm-6.39844-15.97852l-1.2793-.83203-.36523-.27637-1.37109,8.21973,3.01562-7.11133Zm.64062,5.35645l-.0918-.92383-.54883-4.06348-3.01562,7.38867.27441-.18457,3.38184-2.2168Zm.18262.27734l-3.83887,2.40137,9.32227,7.57324-1.64453-3.04785-3.83887-6.92676Zm-3.10742,12.46875l-.54883,1.84668h3.47363l-2.9248-1.84668Zm.91406-54.8623l1.09668,4.52539,4.1123-5.26465-5.4834-3.3252-.82324-.5542,1.09766,4.61865Zm-.54883,20.04199l4.2959-4.71094-4.75293-2.30859.45703,7.01953Zm5.66699-21.15039l-.36621-.92383-1.1875-3.3252-4.47852.64648,6.03223,3.60254Zm-4.02148,6.0957l-2.01074,7.48145,5.39258-5.81934-3.38184-1.66211Zm3.01562,6.83496l.45703-4.89551-.45703.46191-5.02637,5.44922,4.75195,2.30859.27441-3.32422Zm3.47363,41.19238l-8.22656,1.75488,3.0166,1.93945,4.66113-3.32422.54883-.37012Zm-2.74219-48.8584l.45703-4.52637-4.11328,5.08008,3.38184,1.75488.27441-2.30859Zm-2.55957,37.59082l1.64551-4.80273,1.64551-4.71094-4.02148,4.52637.73047,4.9873Zm3.65625-9.79004l-3.47266,9.97461,5.11816-3.97168,1.73633-1.29297-3.38184-4.70996Zm2.74219,13.20703l.63965-8.21973-6.85449,5.26465,3.10742,1.47754,3.10742,1.47754Zm-.73145,7.29688l.54883-5.26465.18262-1.75488-6.21484-2.95605,2.74121,4.98828,2.74219,4.9873Zm.0918.46191l-5.30176,3.87891,8.04395.55469-1.82812-2.95605-.91406-1.47754Zm-4.2959-58.28027l.82227,2.2168.82324,2.12402,4.84375-3.41699.45703-.36963-6.94629-.5542Zm.36523,20.41211l1.82812-1.38574,5.02734-3.87891-6.21582-2.95605-.27344,3.3252-.36621,4.89551Zm0,.27637l3.47363,4.71094,3.38184-9.97461-5.11816,3.9707-1.7373,1.29297Zm10.41992,7.1123l-10.41992,3.78711,1.7373,5.26465,8.68262-9.05176Zm-6.85547-2.03223l-3.38184,5.44922,10.3291-3.69434-6.94727-1.75488Zm3.19922-10.99121l-2.65039-4.89453-2.74219-4.9873-.63965,7.01953,2.19336,1.01562,3.83887,1.84668Zm-5.30078-10.15918l9.59668,10.5293-.54785-8.3125-.36621-5.44971-5.75781,2.12451-2.9248,1.1084Zm5.11816,27.52344l-4.75293,4.9873,3.47363,4.61816,3.83887-10.06738,1.37109-3.69434-3.93066,4.15625Zm.63965-17.17871l3.65625.27637-8.95703-9.88184,5.30078,9.60547Zm-.27441-14.31641l-4.93555,3.50977,7.76953-2.95557-2.83398-.5542Zm.91406,20.22754l-4.2041,4.70996,3.47363.83105,3.56445.92383-1.46289-3.23242-1.37109-3.23242Zm-.09082-.27734l-.73145-4.9873-2.65039,7.48145-.63965,2.03125,4.02148-4.52539Zm1.37109,32.0498l-4.3877-1.75488-.27441,2.30859-.45703,4.61816,5.11914-5.17188Zm-5.02734,5.44922l5.30078,3.32422,1.91992,1.20117-2.01074-9.88281-5.20996,5.35742Zm.27441.55371l2.55859,4.06445h4.20508l-6.76367-4.06445Zm.91406-14.87012l-.54883,6.55762,6.21582-7.57324-5.48438-.64648-.18262,1.66211Zm3.10742,2.40137l-3.56445,4.43359,2.19336.92383,2.19336.83105,1.82812-9.3291-2.65039,3.14062Zm2.37598-18.19531l-5.20996,13.76172,1.18848-.92285,4.2959-3.2334-.27441-9.60547Zm-5.11816,13.94629l5.39258.64648v-4.70996l-3.74707,2.86328-1.64551,1.2002Zm1.82812-24.66016l.45703,3.04785,1.46191-2.40137,1.55469-2.40137-3.74805-.27734.27441,2.03223Zm3.92969,2.30957l-1.09668.36914-2.28516.83105.91406,2.12402,1.82812,4.15625.45703-5.35645.18262-2.12402Zm0-.27734l-.36523-3.50977-2.9248,4.70996,3.29004-1.2002Zm-.91309-17.36426l.82227,13.39258,8.95703,8.77441-9.7793-22.16699Zm5.84961,12.74609l4.1123,9.23633-.82227-9.14453-8.68262-12.37598,5.39258,12.28418Zm4.02148,9.97461l-8.77441-5.0791-.36621,3.87891-.27344,3.87891,5.94043-1.66211,3.47363-1.0166Zm-.82324,4.89551l-8.4082-1.93945,3.74707,5.91113,4.66113-3.97168Zm.0918-.18457l.82227-4.43359-9.23145,2.58594,8.40918,1.84766Zm-8.04297-10.06738v.0918l8.31738,4.71094-8.5918-8.40527.27441,3.60254Zm7.31152,14.4082l.63965-3.87891-4.47852,3.87891,3.38184,2.58594.45703-2.58594Zm4.47852-2.95605l-3.47266-1.10742-.73145,3.87891-.45703,2.67871,6.67188-4.89551-2.01074-.55469Zm2.01074.73926l-4.38672,3.3252-2.28516,1.66211,4.38672,8.86719,2.28516-13.85449Zm-5.4834-16.44043l.82227,9.23633,2.19336-3.3252,1.55371-2.40137-4.56934-3.50977Zm.82227,9.97559l-.82227,4.34082,5.39258,1.66211-1.55371-2.12402-3.0166-3.87891Zm.18262-.46191h7.58691l-3.83887-5.91113-3.74805,5.91113Zm0,.27734l2.37695,3.04785,2.28418,3.13965,2.92578-6.1875h-7.58691Zm7.67773,11.91406l-2.9248-5.08008-2.37598,13.94727,10.05371-.55469-4.75293-8.3125Zm4.84473,8.49707l-9.87207.64648,9.04883,4.98828.82324-5.63477Zm-.91406,5.81934l-8.77441-4.80273,8.5,8.58887.27441-3.78613Zm-3.83887-26.13867l-2.83398,6.18848,7.76953.27734-4.93555-6.46582Zm4.84375,19.85742l1.73633-9.5127-9.32227-3.69434,6.30664,10.99023,1.2793,2.2168Zm-7.12891-13.3916l8.77441,3.60156-1.37109-3.41699-7.40332-.18457Zm6.39746,19.94922l-.36523,3.60254,10.14551,2.95508-9.78027-6.55762Zm10.14551,6.92773l-10.32812-3.04785,6.12402,7.38867,4.2041-4.34082Zm-10.05371-7.38867l5.5752-1.47852-.18262-1.57031-.54883-4.80273-.54785.92383-4.2959,6.92773Zm0-.55469l1.00586-1.57031,3.56445-5.72656-3.74805,2.2168-.18262.73926-.63965,4.34082Zm5.5752-.64648l-3.47266.83105-2.10254.55469,9.87109,6.74219-4.2959-8.12793Zm-5.39258,6.46484l3.29102,6.18848,2.10156.37012-2.19336-2.67871-3.19922-3.87988Zm2.37695-20.50391l-1.7373,9.3291,3.93066-2.40234-1.18848-3.60156-1.00488-3.3252Zm-.18359-20.78125l5.57617-3.41699-2.19434-1.84766-2.19336-1.66211-1.18848,6.92676Zm5.39258.55469l.27441-3.78711-1.37109.83105-4.2959,2.67871,4.93652,5.91113.45605-5.63379Zm-2.28418,5.17188l1.55371.46191-4.57031-5.44922,1.09668,4.34082,1.91992.64648Zm3.19824-15.4248l-6.03223-4.9873.91406,7.29688,5.11816-2.30957Zm-3.56445,22.35156l2.10254-6.0957-3.65625-1.2002-.91406,14.22363,2.46777-6.92773Zm-.09082,14.96289l4.1123-4.71094-6.39746-2.30859,1.09668,3.41699,1.18848,3.60254Zm-2.19434-7.48145l8.77441-1.38574-1.73633-8.21973-3.56445,4.80273-3.47363,4.80273Zm.18359-.64648l6.76367-9.32812-2.28516-3.41797-2.10254,6.00391-2.37598,6.74219Zm0,.92383l2.65039,1.01562,3.56445,1.29297,1.64551-2.77051.54785-.92383-5.75781.92383-2.65039.46191Zm5.11816-30.84863l-2.37695-3.23291-2.65039-1.01611,3.19922,2.77051,1.82812,1.47852Zm-2.28516,5.08008l2.19336,1.66211.36621-2.86328.36523-2.95508-5.11816,2.30859,2.19336,1.84766Zm-.0918,39.4375l2.55957-8.3125.73145-2.30859-4.02148,4.43359.09082,1.01562.63965,5.17188Zm5.84961-5.91113l-5.75781,6.46582,2.55957,1.47754,2.55859,1.47754.63965-9.4209Zm-.73047,9.60645l-4.93555-2.86328,4.29492,8.03516.64062-5.17188Zm-1.55371-14.59375l-.36621,1.38574-2.9248,9.5127,3.10742-3.41699,2.46777-2.86328-2.28418-4.61816Zm-.91406-33.61914l.36523.46191.0918.0918,6.39746-4.89502-9.13965,1.1084,2.28516,3.23291Zm3.47266,58.28027l-1.09668-2.86328-.54883-1.38574-3.92969,4.06348-.18262.18555h5.75781Zm-4.2959-41.65527l7.49512-6.46582-6.85547-2.95508-.63965,9.4209Zm7.3125-6.00391l-7.3125,6.28125,2.28516,3.50977.27441-.55469,4.75293-9.23633Zm0-.83105l-5.94141-8.68164-.63965,5.81836,2.55957,1.1084,4.02148,1.75488Zm.82227-14.13135l-6.48926,4.98779,10.23633,1.29297-2.46777-4.15625-1.2793-2.12451Zm-6.48926,5.44971l6.12402,8.86621,3.19922-2.95508-9.32324-5.91113Zm.27441-.09277l9.13965,5.81934.91406-4.71094-10.05371-1.1084Zm8.95703,29.18652l-6.67188-.83105-2.28516,3.78613,8.95703-2.95508Zm.0918.27734l-9.04883,2.8623,2.28516,4.71094,6.76367-7.57324Zm-2.55957-13.39258l-5.94141,3.60156,8.77441,9.14355-.36523-1.66211-2.46777-11.08301Zm-4.2041,12.09863l6.94629.92383-8.68359-9.14355,1.7373,8.21973Zm4.1123-12.37598l-.73047-6.18848-5.02734,9.69824,5.75781-3.50977Zm-4.75293,31.49512l-.18262,1.29297-.54785,3.87891,5.66602-5.17188h-4.93555Zm8.04395,9.23633l-.45703-1.57031-2.28516-7.57324-5.94141,5.35645,8.68359,3.78711Zm-8.68359-3.60254l1.64551,4.3418,6.76367-.55469-8.40918-3.78711Zm1.18848-13.66895l-.54883,7.57324,2.46777-3.23242,4.2959-5.63379-6.03223-.55469-.18262,1.84766Zm-.36523,7.85059h5.02637l1.64551-8.77441-.91406,1.20117-5.75781,7.57324Zm7.03711-14.59277l-6.21484,4.61719,5.94141.64746,1.09668-5.81934-.82324.55469Zm-5.66602,3.87891l6.58008-4.80273-.36523-2.12402-6.21484,6.92676Zm5.84961-30.01758l-1.28027,1.1084-1.82812,1.66211.63965,6.00391,1.64551-5.81934.82324-2.95508Zm.82227-6.18848l.18262.37012-.54785-5.35742-3.0166-.5542,3.38184,5.5415Zm-3.19922,15.70215l2.74219,12.46875.63965-15.97852-3.38184,3.50977Zm.54883-2.125l-.45703,1.75488,3.29004-3.50977-.82227-5.54102-2.01074,7.2959Zm.45703,30.11035l-.64062,3.23242,3.29102,3.97168-1.64551-12.56152-1.00488,5.35742Zm-.45703,3.87891l2.65039,8.49707.54785-4.70996-3.19824-3.78711Z"/>
  </g>
</svg>